<?xml version="1.0" encoding="UTF-8" standalone="no"?>
<!DOCTYPE svg PUBLIC "-//W3C//DTD SVG 1.1//EN"
 "http://www.w3.org/Graphics/SVG/1.1/DTD/svg11.dtd">
<!-- Generated by graphviz version 2.43.0 (0)
 -->
<!-- Title: G Pages: 1 -->
<svg width="940pt" height="81pt"
 viewBox="0.00 0.00 940.00 80.88" xmlns="http://www.w3.org/2000/svg" xmlns:xlink="http://www.w3.org/1999/xlink">
<g id="graph0" class="graph" transform="scale(1 1) rotate(0) translate(4 76.88)">
<title>G</title>
<polygon fill="white" stroke="transparent" points="-4,4 -4,-76.88 936,-76.88 936,4 -4,4"/>
<!-- problem -->
<g id="node1" class="node">
<title>problem</title>
<polygon fill="none" stroke="black" points="186,-66.44 0,-66.44 0,-6.44 186,-6.44 198,-36.44 186,-66.44"/>
<text text-anchor="middle" x="99" y="-47.74" font-family="Times,serif" font-size="14.00">1</text>
<text text-anchor="middle" x="99" y="-32.74" font-family="Times,serif" font-size="14.00">Frame business problem </text>
<text text-anchor="middle" x="99" y="-17.74" font-family="Times,serif" font-size="14.00">into a ML problem</text>
</g>
<!-- data -->
<g id="node2" class="node">
<title>data</title>
<path fill="none" stroke="black" d="M401,-66.2C401,-69.85 363.57,-72.81 317.5,-72.81 271.43,-72.81 234,-69.85 234,-66.2 234,-66.2 234,-6.68 234,-6.68 234,-3.03 271.43,-0.06 317.5,-0.06 363.57,-0.06 401,-3.03 401,-6.68 401,-6.68 401,-66.2 401,-66.2"/>
<path fill="none" stroke="black" d="M401,-66.2C401,-62.55 363.57,-59.59 317.5,-59.59 271.43,-59.59 234,-62.55 234,-66.2"/>
<text text-anchor="middle" x="317.5" y="-47.74" font-family="Times,serif" font-size="14.00">2</text>
<text text-anchor="middle" x="317.5" y="-32.74" font-family="Times,serif" font-size="14.00">Collect, and prepare </text>
<text text-anchor="middle" x="317.5" y="-17.74" font-family="Times,serif" font-size="14.00">data, incl. labeling</text>
</g>
<!-- problem&#45;&gt;data -->
<g id="edge1" class="edge">
<title>problem&#45;&gt;data</title>
<path fill="none" stroke="black" d="M198.11,-36.44C206.63,-36.44 215.22,-36.44 223.69,-36.44"/>
<polygon fill="black" stroke="black" points="223.94,-39.94 233.94,-36.44 223.94,-32.94 223.94,-39.94"/>
</g>
<!-- modeling -->
<g id="node3" class="node">
<title>modeling</title>
<polygon fill="none" stroke="black" points="544,-72.44 441,-72.44 437,-68.44 437,-0.44 540,-0.44 544,-4.44 544,-72.44"/>
<polyline fill="none" stroke="black" points="540,-68.44 437,-68.44 "/>
<polyline fill="none" stroke="black" points="540,-68.44 540,-0.44 "/>
<polyline fill="none" stroke="black" points="540,-68.44 544,-72.44 "/>
<text text-anchor="middle" x="490.5" y="-47.74" font-family="Times,serif" font-size="14.00">3</text>
<text text-anchor="middle" x="490.5" y="-32.74" font-family="Times,serif" font-size="14.00">Build model </text>
<text text-anchor="middle" x="490.5" y="-17.74" font-family="Times,serif" font-size="14.00">and train it</text>
</g>
<!-- data&#45;&gt;modeling -->
<g id="edge2" class="edge">
<title>data&#45;&gt;modeling</title>
<path fill="none" stroke="black" d="M401.25,-36.44C409.76,-36.44 418.3,-36.44 426.55,-36.44"/>
<polygon fill="black" stroke="black" points="426.81,-39.94 436.81,-36.44 426.81,-32.94 426.81,-39.94"/>
</g>
<!-- evaluate -->
<g id="node4" class="node">
<title>evaluate</title>
<polygon fill="none" stroke="black" points="702,-72.44 580,-72.44 580,-68.44 576,-68.44 576,-64.44 580,-64.44 580,-8.44 576,-8.44 576,-4.44 580,-4.44 580,-0.44 702,-0.44 702,-72.44"/>
<polyline fill="none" stroke="black" points="580,-68.44 584,-68.44 584,-64.44 580,-64.44 "/>
<polyline fill="none" stroke="black" points="580,-8.44 584,-8.44 584,-4.44 580,-4.44 "/>
<text text-anchor="middle" x="641" y="-47.74" font-family="Times,serif" font-size="14.00">4</text>
<text text-anchor="middle" x="641" y="-32.74" font-family="Times,serif" font-size="14.00">Evaluate and </text>
<text text-anchor="middle" x="641" y="-17.74" font-family="Times,serif" font-size="14.00">validate model</text>
</g>
<!-- modeling&#45;&gt;evaluate -->
<g id="edge3" class="edge">
<title>modeling&#45;&gt;evaluate</title>
<path fill="none" stroke="black" d="M544.27,-36.44C552.54,-36.44 561.2,-36.44 569.79,-36.44"/>
<polygon fill="black" stroke="black" points="569.8,-39.94 579.8,-36.44 569.8,-32.94 569.8,-39.94"/>
</g>
<!-- improve -->
<g id="node5" class="node">
<title>improve</title>
<polygon fill="none" stroke="black" points="914,-66.44 738,-66.44 738,-6.44 914,-6.44 914,-0.44 932,-36.44 914,-72.44 914,-66.44"/>
<text text-anchor="middle" x="835" y="-47.74" font-family="Times,serif" font-size="14.00">5</text>
<text text-anchor="middle" x="835" y="-32.74" font-family="Times,serif" font-size="14.00">Improve model to </text>
<text text-anchor="middle" x="835" y="-17.74" font-family="Times,serif" font-size="14.00">reach expected standard</text>
</g>
<!-- evaluate&#45;&gt;improve -->
<g id="edge4" class="edge">
<title>evaluate&#45;&gt;improve</title>
<path fill="none" stroke="black" d="M702.22,-36.44C710.36,-36.44 718.91,-36.44 727.56,-36.44"/>
<polygon fill="black" stroke="black" points="727.76,-39.94 737.76,-36.44 727.76,-32.94 727.76,-39.94"/>
</g>
</g>
</svg>
